Animal-Light.ufo
<glyph name="dollar" format="2">
	<advance width="600"/>
	<unicode hex="0024"/>
	<outline>
		<contour>
			<point x="312" y="560" type="curve" smooth="yes"/>
			<point x="384" y="560"/>
			<point x="432" y="521"/>
			<point x="432" y="464" type="curve"/>
			<point x="438" y="507" type="line"/>
			<point x="412" y="507"/>
			<point x="395" y="492"/>
			<point x="395" y="469" type="curve" smooth="yes"/>
			<point x="395" y="446"/>
			<point x="410" y="430"/>
			<point x="433" y="430" type="curve" smooth="yes"/>
			<point x="455" y="430"/>
			<point x="470" y="446"/>
			<point x="470" y="469" type="curve" smooth="yes"/>
			<point x="470" y="553"/>
			<point x="406" y="610"/>
			<point x="310" y="610" type="curve" smooth="yes"/>
			<point x="208" y="610"/>
			<point x="141" y="544"/>
			<point x="141" y="445" type="curve" smooth="yes"/>
			<point x="141" y="254"/>
			<point x="428" y="297"/>
			<point x="428" y="144" type="curve" smooth="yes"/>
			<point x="428" y="82"/>
			<point x="377" y="40"/>
			<point x="300" y="40" type="curve" smooth="yes"/>
			<point x="230" y="40"/>
			<point x="184" y="75"/>
			<point x="149" y="93" type="curve" smooth="yes"/>
			<point x="123" y="106"/>
			<point x="105" y="84"/>
			<point x="122" y="60" type="curve" smooth="yes"/>
			<point x="147" y="23"/>
			<point x="220" y="-10"/>
			<point x="305" y="-10" type="curve" smooth="yes"/>
			<point x="413" y="-10"/>
			<point x="484" y="54"/>
			<point x="484" y="150" type="curve" smooth="yes"/>
			<point x="484" y="344"/>
			<point x="195" y="302"/>
			<point x="195" y="452" type="curve" smooth="yes"/>
			<point x="195" y="516"/>
			<point x="242" y="560"/>
		</contour>
		<contour>
			<point x="287" y="313" type="line"/>
			<point x="287" y="-65" type="line" smooth="yes"/>
			<point x="287" y="-88"/>
			<point x="296" y="-100"/>
			<point x="309" y="-100" type="curve" smooth="yes"/>
			<point x="322" y="-100"/>
			<point x="331" y="-88"/>
			<point x="331" y="-65" type="curve" smooth="yes"/>
			<point x="331" y="289" type="line"/>
		</contour>
		<contour>
			<point x="334" y="297" type="line"/>
			<point x="334" y="674" type="line" smooth="yes"/>
			<point x="334" y="697"/>
			<point x="325" y="709"/>
			<point x="312" y="709" type="curve" smooth="yes"/>
			<point x="299" y="709"/>
			<point x="290" y="697"/>
			<point x="290" y="674" type="curve" smooth="yes"/>
			<point x="290" y="313" type="line"/>
		</contour>
	</outline>
</glyph>
<glyph name="ampersand" format="2">
	<advance width="614"/>
	<unicode hex="0026"/>
	<outline>
		<contour>
			<point x="511" y="0" type="curve" smooth="yes"/>
			<point x="529" y="0"/>
			<point x="541" y="10"/>
			<point x="541" y="25" type="curve" smooth="yes"/>
			<point x="541" y="40"/>
			<point x="529" y="50"/>
			<point x="511" y="50" type="curve" smooth="yes"/>
			<point x="341" y="50"/>
			<point x="165" y="432"/>
			<point x="165" y="544" type="curve" smooth="yes"/>
			<point x="165" y="628"/>
			<point x="209" y="669"/>
			<point x="253" y="669" type="curve" smooth="yes"/>
			<point x="299" y="669"/>
			<point x="345" y="626"/>
			<point x="345" y="544" type="curve" smooth="yes"/>
			<point x="345" y="436"/>
			<point x="278" y="364"/>
			<point x="183" y="364" type="curve"/>
			<point x="183" y="349" type="line"/>
			<point x="312" y="349"/>
			<point x="398" y="428"/>
			<point x="399" y="544" type="curve" smooth="yes"/>
			<point x="399" y="653.995"/>
			<point x="326" y="710"/>
			<point x="254" y="710" type="curve" smooth="yes"/>
			<point x="182" y="710"/>
			<point x="111" y="655"/>
			<point x="111" y="544" type="curve" smooth="yes"/>
			<point x="111" y="377"/>
			<point x="311" y="0"/>
		</contour>
		<contour>
			<point x="213" y="-9" type="curve" smooth="yes"/>
			<point x="302" y="-9"/>
			<point x="362" y="39"/>
			<point x="362" y="112" type="curve"/>
			<point x="352" y="111" type="line"/>
			<point x="352" y="65"/>
			<point x="309" y="35"/>
			<point x="245" y="35" type="curve" smooth="yes"/>
			<point x="147" y="35"/>
			<point x="81" y="109"/>
			<point x="81" y="219" type="curve" smooth="yes"/>
			<point x="81" y="293"/>
			<point x="123" y="342"/>
			<point x="185" y="342" type="curve"/>
			<point x="185" y="358" type="line"/>
			<point x="91" y="358"/>
			<point x="28" y="288"/>
			<point x="28" y="183" type="curve" smooth="yes"/>
			<point x="28" y="68"/>
			<point x="102" y="-9"/>
		</contour>
		<contour>
			<point x="350" y="115" type="curve"/>
			<point x="364" y="115" type="line"/>
			<point x="364" y="227"/>
			<point x="420" y="292"/>
			<point x="499" y="292" type="curve" smooth="yes"/>
			<point x="519" y="292"/>
			<point x="532" y="304"/>
			<point x="532" y="322" type="curve" smooth="yes"/>
			<point x="532" y="340"/>
			<point x="519" y="352"/>
			<point x="499" y="352" type="curve" smooth="yes"/>
			<point x="411" y="352"/>
			<point x="350" y="263"/>
		</contour>
	</outline>
</glyph>
<glyph name="parenright" format="2">
	<advance width="294"/>
	<unicode hex="0029"/>
	<outline>
		<contour>
			<point x="112" y="-158" type="curve" smooth="yes"/>
			<point x="126" y="-158"/>
			<point x="134" y="-152"/>
			<point x="150" y="-126" type="curve" smooth="yes"/>
			<point x="223" y="-4"/>
			<point x="259" y="162"/>
			<point x="259" y="311" type="curve" smooth="yes"/>
			<point x="259" y="451"/>
			<point x="224" y="604"/>
			<point x="150" y="728" type="curve" smooth="yes"/>
			<point x="134" y="754"/>
			<point x="126" y="760"/>
			<point x="112" y="760" type="curve" smooth="yes"/>
			<point x="101" y="760"/>
			<point x="97" y="756"/>
			<point x="97" y="749" type="curve" smooth="yes"/>
			<point x="97" y="721"/>
			<point x="198" y="566"/>
			<point x="198" y="311" type="curve" smooth="yes"/>
			<point x="198" y="47"/>
			<point x="97" y="-118"/>
			<point x="97" y="-147" type="curve" smooth="yes"/>
			<point x="97" y="-154"/>
			<point x="101" y="-158"/>
		</contour>
	</outline>
</glyph>
<glyph name="period" format="2">
	<advance width="205"/>
	<unicode hex="002E"/>
	<outline>
		<contour>
			<point x="101" y="-11" type="curve" smooth="yes"/>
			<point x="130" y="-11"/>
			<point x="149" y="8"/>
			<point x="149" y="37" type="curve" smooth="yes"/>
			<point x="149" y="65"/>
			<point x="130" y="84"/>
			<point x="101" y="84" type="curve" smooth="yes"/>
			<point x="72" y="84"/>
			<point x="54" y="65"/>
			<point x="54" y="37" type="curve" smooth="yes"/>
			<point x="54" y="8"/>
			<point x="72" y="-11"/>
		</contour>
	</outline>
</glyph>
<glyph name="one" format="2">
	<advance width="277"/>
	<unicode hex="0031"/>
	<outline>
		<contour>
			<point x="194" y="-10" type="curve" smooth="yes"/>
			<point x="213" y="-9"/>
			<point x="226" y="7"/>
			<point x="226" y="30" type="curve"/>
			<point x="227" y="678" type="line" smooth="yes"/>
			<point x="227" y="697"/>
			<point x="215" y="710"/>
			<point x="196" y="710" type="curve" smooth="yes"/>
			<point x="179" y="710"/>
			<point x="167" y="705"/>
			<point x="120" y="684" type="curve" smooth="yes"/>
			<point x="70" y="661"/>
			<point x="53" y="657"/>
			<point x="53" y="636" type="curve" smooth="yes"/>
			<point x="53" y="621"/>
			<point x="64" y="608"/>
			<point x="79" y="608" type="curve" smooth="yes"/>
			<point x="85" y="608"/>
			<point x="87" y="609"/>
			<point x="132" y="627" type="curve" smooth="yes"/>
			<point x="148" y="633"/>
			<point x="170" y="642"/>
			<point x="199" y="654" type="curve"/>
			<point x="163" y="644" type="line"/>
			<point x="162" y="29" type="line"/>
			<point x="162" y="6"/>
			<point x="175" y="-10"/>
		</contour>
	</outline>
</glyph>
<glyph name="six" format="2">
	<advance width="510"/>
	<unicode hex="0036"/>
	<outline>
		<contour>
			<point x="279" y="-10" type="curve" smooth="yes"/>
			<point x="395" y="-10"/>
			<point x="472" y="86"/>
			<point x="472" y="230" type="curve" smooth="yes"/>
			<point x="472" y="374"/>
			<point x="401" y="470"/>
			<point x="295" y="470" type="curve" smooth="yes"/>
			<point x="241" y="470"/>
			<point x="197" y="446"/>
			<point x="166" y="405" type="curve"/>
			<point x="164" y="406" type="line"/>
			<point x="201" y="506"/>
			<point x="275" y="600"/>
			<point x="373" y="666" type="curve" smooth="yes"/>
			<point x="408" y="690"/>
			<point x="375" y="726"/>
			<point x="335" y="700" type="curve" smooth="yes"/>
			<point x="179" y="595"/>
			<point x="75" y="454"/>
			<point x="75" y="234" type="curve" smooth="yes"/>
			<point x="75" y="100"/>
			<point x="157" y="-10"/>
		</contour>
		<contour>
			<point x="273" y="40" type="curve" smooth="yes"/>
			<point x="193" y="40"/>
			<point x="136" y="126"/>
			<point x="136" y="256" type="curve" smooth="yes"/>
			<point x="136" y="354"/>
			<point x="193" y="420"/>
			<point x="272" y="420" type="curve" smooth="yes"/>
			<point x="356" y="420"/>
			<point x="411" y="344"/>
			<point x="411" y="230" type="curve" smooth="yes"/>
			<point x="411" y="116"/>
			<point x="356" y="40"/>
		</contour>
	</outline>
</glyph>
<glyph name="seven" format="2">
	<advance width="510"/>
	<unicode hex="0037"/>
	<outline>
		<contour>
			<point x="231" y="25" type="curve" smooth="yes"/>
			<point x="462" y="665" type="line" smooth="yes"/>
			<point x="471" y="690"/>
			<point x="461" y="700"/>
			<point x="436" y="700" type="curve" smooth="yes"/>
			<point x="100" y="700" type="line" smooth="yes"/>
			<point x="82" y="700"/>
			<point x="70" y="690"/>
			<point x="70" y="675" type="curve" smooth="yes"/>
			<point x="70" y="660"/>
			<point x="82" y="650"/>
			<point x="100" y="650" type="curve" smooth="yes"/>
			<point x="412" y="650" type="line"/>
			<point x="389" y="668" type="line"/>
			<point x="410" y="620" type="line"/>
			<point x="406" y="666" type="line"/>
			<point x="175" y="40" type="line" smooth="yes"/>
			<point x="157" y="-9"/>
			<point x="209" y="-35"/>
		</contour>
	</outline>
</glyph>
<glyph name="at" format="2">
	<advance width="1023"/>
	<unicode hex="0040"/>
	<outline>
		<contour>
			<point x="409" y="-210" type="curve" smooth="yes"/>
			<point x="478" y="-210"/>
			<point x="546" y="-200"/>
			<point x="579" y="-184" type="curve" smooth="yes"/>
			<point x="636" y="-159"/>
			<point x="613" y="-109"/>
			<point x="555" y="-133" type="curve" smooth="yes"/>
			<point x="516" y="-149"/>
			<point x="461" y="-160"/>
			<point x="418" y="-160" type="curve" smooth="yes"/>
			<point x="248" y="-160"/>
			<point x="135" y="11"/>
			<point x="135" y="267" type="curve" smooth="yes"/>
			<point x="135" y="529"/>
			<point x="295" y="703"/>
			<point x="536" y="703" type="curve" smooth="yes"/>
			<point x="747" y="703"/>
			<point x="888" y="553"/>
			<point x="888" y="327" type="curve" smooth="yes"/>
			<point x="888" y="155"/>
			<point x="844" y="41"/>
			<point x="778" y="41" type="curve" smooth="yes"/>
			<point x="712" y="41"/>
			<point x="668" y="123"/>
			<point x="668" y="246" type="curve" smooth="yes"/>
			<point x="668" y="474" type="line"/>
			<point x="613" y="506"/>
			<point x="551" y="528"/>
			<point x="511" y="528" type="curve" smooth="yes"/>
			<point x="386" y="528"/>
			<point x="302" y="413"/>
			<point x="302" y="241" type="curve" smooth="yes"/>
			<point x="302" y="90"/>
			<point x="363" y="-10"/>
			<point x="454" y="-10" type="curve" smooth="yes"/>
			<point x="534" y="-10"/>
			<point x="592" y="47"/>
			<point x="612" y="139" type="curve"/>
			<point x="619" y="136" type="line"/>
			<point x="640" y="47"/>
			<point x="697" y="-9"/>
			<point x="775" y="-9" type="curve" smooth="yes"/>
			<point x="879" y="-9"/>
			<point x="948" y="125"/>
			<point x="948" y="327" type="curve" smooth="yes"/>
			<point x="948" y="583"/>
			<point x="784" y="753"/>
			<point x="537" y="753" type="curve" smooth="yes"/>
			<point x="260" y="753"/>
			<point x="75" y="557"/>
			<point x="75" y="263" type="curve" smooth="yes"/>
			<point x="75" y="-21"/>
			<point x="209" y="-210"/>
		</contour>
		<contour>
			<point x="479" y="40" type="curve" smooth="yes"/>
			<point x="409" y="40"/>
			<point x="362" y="122"/>
			<point x="362" y="245" type="curve" smooth="yes"/>
			<point x="362" y="385"/>
			<point x="422" y="478"/>
			<point x="497" y="478" type="curve" smooth="yes"/>
			<point x="545" y="478"/>
			<point x="574" y="462"/>
			<point x="608" y="445" type="curve"/>
			<point x="608" y="280" type="line" smooth="yes"/>
			<point x="608" y="136"/>
			<point x="556" y="40"/>
		</contour>
	</outline>
</glyph>
<glyph name="A" format="2">
	<advance width="609"/>
	<unicode hex="0041"/>
	<anchor x="298" y="710" name="top"/>
	<outline>
		<contour>
			<point x="76" y="-10" type="curve" smooth="yes"/>
			<point x="90" y="-10"/>
			<point x="104" y="0"/>
			<point x="111" y="24" type="curve" smooth="yes"/>
			<point x="297" y="661" type="line"/>
			<point x="300" y="661" type="line"/>
			<point x="496" y="24" type="line" smooth="yes"/>
			<point x="503" y="1"/>
			<point x="517" y="-10"/>
			<point x="531" y="-10" type="curve" smooth="yes"/>
			<point x="549" y="-10"/>
			<point x="565" y="7"/>
			<point x="556" y="37" type="curve" smooth="yes"/>
			<point x="367" y="657" type="line" smooth="yes"/>
			<point x="356" y="693"/>
			<point x="330" y="710"/>
			<point x="299" y="710" type="curve" smooth="yes"/>
			<point x="268" y="710"/>
			<point x="245" y="693"/>
			<point x="234" y="657" type="curve" smooth="yes"/>
			<point x="52" y="37" type="line" smooth="yes"/>
			<point x="44" y="8"/>
			<point x="57" y="-10"/>
		</contour>
		<contour>
			<point x="151" y="223" type="line"/>
			<point x="454" y="223" type="line"/>
			<point x="454" y="273" type="line"/>
			<point x="151" y="273" type="line"/>
		</contour>
	</outline>
</glyph>
<glyph name="B" format="2">
	<advance width="580"/>
	<unicode hex="0042"/>
	<outline>
		<contour>
			<point x="305" y="-10" type="curve" smooth="yes"/>
			<point x="422" y="-10"/>
			<point x="500" y="62"/>
			<point x="500" y="170" type="curve" smooth="yes"/>
			<point x="500" y="286"/>
			<point x="413" y="363"/>
			<point x="282" y="363" type="curve"/>
			<point x="282" y="347" type="line"/>
			<point x="395" y="347"/>
			<point x="471" y="418"/>
			<point x="471" y="525" type="curve" smooth="yes"/>
			<point x="471" y="636"/>
			<point x="395" y="710"/>
			<point x="282" y="710" type="curve" smooth="yes"/>
			<point x="173" y="710"/>
			<point x="100" y="688"/>
			<point x="100" y="655" type="curve" smooth="yes"/>
			<point x="100" y="37" type="line" smooth="yes"/>
			<point x="100" y="21"/>
			<point x="110" y="7"/>
			<point x="126" y="4" type="curve" smooth="yes"/>
			<point x="171" y="-5"/>
			<point x="239" y="-10"/>
		</contour>
		<contour>
			<point x="305" y="40" type="curve" smooth="yes"/>
			<point x="253" y="40"/>
			<point x="200" y="44"/>
			<point x="160" y="51" type="curve"/>
			<point x="161" y="645" type="line"/>
			<point x="187" y="654"/>
			<point x="229" y="660"/>
			<point x="276" y="660" type="curve" smooth="yes"/>
			<point x="354" y="660"/>
			<point x="406" y="606"/>
			<point x="406" y="525" type="curve" smooth="yes"/>
			<point x="406" y="435"/>
			<point x="346" y="375"/>
			<point x="256" y="375" type="curve" smooth="yes"/>
			<point x="244" y="375"/>
			<point x="236" y="367"/>
			<point x="236" y="355" type="curve" smooth="yes"/>
			<point x="236" y="343"/>
			<point x="244" y="335"/>
			<point x="256" y="335" type="curve" smooth="yes"/>
			<point x="366" y="335"/>
			<point x="440" y="269"/>
			<point x="440" y="170" type="curve" smooth="yes"/>
			<point x="440" y="92"/>
			<point x="386" y="40"/>
		</contour>
	</outline>
</glyph>
<glyph name="E" format="2">
	<advance width="442"/>
	<unicode hex="0045"/>
	<anchor x="239" y="700" name="top"/>
	<outline>
		<contour>
			<point x="129" y="0" type="curve" smooth="yes"/>
			<point x="393" y="0" type="line" smooth="yes"/>
			<point x="410" y="0"/>
			<point x="422" y="10"/>
			<point x="422" y="25" type="curve" smooth="yes"/>
			<point x="422" y="41"/>
			<point x="410" y="51"/>
			<point x="392" y="51" type="curve" smooth="yes"/>
			<point x="151" y="51" type="line"/>
			<point x="160" y="35" type="line"/>
			<point x="160" y="665" type="line"/>
			<point x="151" y="650" type="line"/>
			<point x="393" y="650" type="line" smooth="yes"/>
			<point x="410" y="650"/>
			<point x="422" y="660"/>
			<point x="422" y="675" type="curve" smooth="yes"/>
			<point x="422" y="690"/>
			<point x="410" y="700"/>
			<point x="392" y="700" type="curve" smooth="yes"/>
			<point x="130" y="700" type="line" smooth="yes"/>
			<point x="112" y="700"/>
			<point x="100" y="688"/>
			<point x="100" y="670" type="curve"/>
			<point x="100" y="25" type="line" smooth="yes"/>
			<point x="100" y="10"/>
			<point x="112" y="0"/>
		</contour>
		<contour>
			<point x="137" y="321" type="line"/>
			<point x="308" y="321" type="line" smooth="yes"/>
			<point x="326" y="321"/>
			<point x="338" y="331"/>
			<point x="338" y="346" type="curve" smooth="yes"/>
			<point x="338" y="361"/>
			<point x="326" y="371"/>
			<point x="308" y="371" type="curve" smooth="yes"/>
			<point x="137" y="371" type="line"/>
		</contour>
	</outline>
</glyph>
<glyph name="G" format="2">
	<advance width="557"/>
	<unicode hex="0047"/>
	<outline>
		<contour>
			<point x="320" y="-10" type="curve" smooth="yes"/>
			<point x="425" y="-10"/>
			<point x="495" y="56"/>
			<point x="495" y="155" type="curve" smooth="yes"/>
			<point x="495" y="300" type="line" smooth="yes"/>
			<point x="495" y="315"/>
			<point x="485" y="325"/>
			<point x="471" y="325" type="curve" smooth="yes"/>
			<point x="318" y="325" type="line" smooth="yes"/>
			<point x="300" y="325"/>
			<point x="288" y="315"/>
			<point x="288" y="300" type="curve" smooth="yes"/>
			<point x="288" y="285"/>
			<point x="300" y="275"/>
			<point x="317" y="275" type="curve" smooth="yes"/>
			<point x="470" y="275" type="line"/>
			<point x="445" y="286" type="line"/>
			<point x="445" y="154" type="line" smooth="yes"/>
			<point x="445" y="86"/>
			<point x="395" y="40"/>
			<point x="320" y="40" type="curve" smooth="yes"/>
			<point x="201" y="40"/>
			<point x="155" y="164"/>
			<point x="155" y="350" type="curve" smooth="yes"/>
			<point x="155" y="573"/>
			<point x="221" y="660"/>
			<point x="320" y="660" type="curve" smooth="yes"/>
			<point x="397" y="660"/>
			<point x="444" y="607"/>
			<point x="444" y="527" type="curve"/>
			<point x="454" y="549" type="line"/>
			<point x="433" y="549"/>
			<point x="419" y="535"/>
			<point x="419" y="514" type="curve" smooth="yes"/>
			<point x="419" y="493"/>
			<point x="433" y="479"/>
			<point x="454" y="479" type="curve" smooth="yes"/>
			<point x="475" y="479"/>
			<point x="489" y="498"/>
			<point x="489" y="527" type="curve" smooth="yes"/>
			<point x="489" y="637"/>
			<point x="421" y="710"/>
			<point x="320" y="710" type="curve" smooth="yes"/>
			<point x="158" y="710"/>
			<point x="95" y="566"/>
			<point x="95" y="350" type="curve" smooth="yes"/>
			<point x="95" y="91"/>
			<point x="185" y="-10"/>
		</contour>
	</outline>
</glyph>
<glyph name="J" format="2">
	<advance width="455"/>
	<unicode hex="004A"/>
	<outline>
		<contour>
			<point x="200" y="-10" type="curve" smooth="yes"/>
			<point x="296" y="-10"/>
			<point x="360" y="54"/>
			<point x="360" y="150" type="curve" smooth="yes"/>
			<point x="360" y="670" type="line" smooth="yes"/>
			<point x="360" y="694"/>
			<point x="348" y="710"/>
			<point x="330" y="710" type="curve" smooth="yes"/>
			<point x="312" y="710"/>
			<point x="300" y="694"/>
			<point x="300" y="670" type="curve" smooth="yes"/>
			<point x="300" y="150" type="line" smooth="yes"/>
			<point x="300" y="84"/>
			<point x="256" y="40"/>
			<point x="190" y="40" type="curve" smooth="yes"/>
			<point x="124" y="40"/>
			<point x="80" y="81"/>
			<point x="80" y="143" type="curve"/>
			<point x="78" y="131" type="line"/>
			<point x="103" y="131"/>
			<point x="120" y="144"/>
			<point x="120" y="163" type="curve" smooth="yes"/>
			<point x="120" y="186"/>
			<point x="104" y="201"/>
			<point x="80" y="201" type="curve" smooth="yes"/>
			<point x="56" y="201"/>
			<point x="40" y="179"/>
			<point x="40" y="147" type="curve" smooth="yes"/>
			<point x="40" y="55"/>
			<point x="104" y="-10"/>
		</contour>
	</outline>
</glyph>
<glyph name="L" format="2">
	<advance width="442"/>
	<unicode hex="004C"/>
	<outline>
		<contour>
			<point x="130" y="0" type="curve" smooth="yes"/>
			<point x="392" y="0" type="line" smooth="yes"/>
			<point x="410" y="0"/>
			<point x="422" y="10"/>
			<point x="422" y="25" type="curve" smooth="yes"/>
			<point x="422" y="40"/>
			<point x="410" y="50"/>
			<point x="393" y="50" type="curve" smooth="yes"/>
			<point x="131" y="50" type="line"/>
			<point x="160" y="41" type="line"/>
			<point x="160" y="670" type="line" smooth="yes"/>
			<point x="160" y="694"/>
			<point x="148" y="710"/>
			<point x="129" y="710" type="curve" smooth="yes"/>
			<point x="112" y="710"/>
			<point x="100" y="694"/>
			<point x="100" y="670" type="curve" smooth="yes"/>
			<point x="100" y="25" type="line" smooth="yes"/>
			<point x="100" y="9"/>
			<point x="112" y="0"/>
		</contour>
	</outline>
</glyph>
<glyph name="N" format="2">
	<advance width="624"/>
	<unicode hex="004E"/>
	<anchor x="320" y="700" name="top"/>
	<anchor x="312" y="0" name="bottom"/>
	<outline>
		<contour>
			<point x="125" y="-11" type="curve" smooth="yes"/>
			<point x="140" y="-11"/>
			<point x="150" y="1"/>
			<point x="150" y="19" type="curve" smooth="yes"/>
			<point x="150" y="672" type="line"/>
			<point x="125" y="660" type="line"/>
			<point x="188" y="660" type="line"/>
			<point x="151" y="672" type="line"/>
			<point x="412" y="30" type="line" smooth="yes"/>
			<point x="422" y="6"/>
			<point x="448" y="-10"/>
			<point x="478" y="-10" type="curve" smooth="yes"/>
			<point x="506" y="-10"/>
			<point x="524" y="6"/>
			<point x="524" y="30" type="curve" smooth="yes"/>
			<point x="524" y="680" type="line" smooth="yes"/>
			<point x="524" y="698"/>
			<point x="514" y="710"/>
			<point x="499" y="710" type="curve" smooth="yes"/>
			<point x="484" y="710"/>
			<point x="474" y="698"/>
			<point x="474" y="680" type="curve" smooth="yes"/>
			<point x="474" y="6" type="line"/>
			<point x="489" y="40" type="line"/>
			<point x="446" y="40" type="line"/>
			<point x="472" y="30" type="line"/>
			<point x="211" y="670" type="line" smooth="yes"/>
			<point x="201" y="694"/>
			<point x="175" y="710"/>
			<point x="145" y="710" type="curve" smooth="yes"/>
			<point x="118" y="710"/>
			<point x="100" y="694"/>
			<point x="100" y="670" type="curve" smooth="yes"/>
			<point x="100" y="19" type="line" smooth="yes"/>
			<point x="100" y="1"/>
			<point x="110" y="-11"/>
		</contour>
	</outline>
</glyph>
<glyph name="O" format="2">
	<advance width="610"/>
	<unicode hex="004F"/>
	<anchor x="305" y="700" name="top"/>
	<outline>
		<contour>
			<point x="305" y="-10" type="curve" smooth="yes"/>
			<point x="456" y="-10"/>
			<point x="515" y="134"/>
			<point x="515" y="351" type="curve" smooth="yes"/>
			<point x="515" y="609"/>
			<point x="431" y="710"/>
			<point x="305" y="710" type="curve" smooth="yes"/>
			<point x="154" y="710"/>
			<point x="95" y="566"/>
			<point x="95" y="351" type="curve" smooth="yes"/>
			<point x="95" y="91"/>
			<point x="179" y="-10"/>
		</contour>
		<contour>
			<point x="305" y="40" type="curve" smooth="yes"/>
			<point x="197" y="40"/>
			<point x="155" y="164"/>
			<point x="155" y="351" type="curve" smooth="yes"/>
			<point x="155" y="573"/>
			<point x="215" y="660"/>
			<point x="305" y="660" type="curve" smooth="yes"/>
			<point x="413" y="660"/>
			<point x="455" y="536"/>
			<point x="455" y="351" type="curve" smooth="yes"/>
			<point x="455" y="127"/>
			<point x="395" y="40"/>
		</contour>
	</outline>
</glyph>
<glyph name="P" format="2">
	<advance width="560"/>
	<unicode hex="0050"/>
	<outline>
		<contour>
			<point x="130" y="-10" type="curve" smooth="yes"/>
			<point x="148" y="-10"/>
			<point x="160" y="6"/>
			<point x="160" y="30" type="curve" smooth="yes"/>
			<point x="160" y="669" type="line"/>
			<point x="134" y="643" type="line"/>
			<point x="182" y="657"/>
			<point x="225" y="664"/>
			<point x="263" y="664" type="curve" smooth="yes"/>
			<point x="367" y="664"/>
			<point x="430" y="606"/>
			<point x="430" y="460" type="curve" smooth="yes"/>
			<point x="430" y="358"/>
			<point x="364" y="290"/>
			<point x="266" y="290" type="curve" smooth="yes"/>
			<point x="248" y="290"/>
			<point x="236" y="282"/>
			<point x="236" y="270" type="curve" smooth="yes"/>
			<point x="236" y="255"/>
			<point x="248" y="245"/>
			<point x="267" y="245" type="curve" smooth="yes"/>
			<point x="401" y="245"/>
			<point x="490" y="333"/>
			<point x="490" y="466" type="curve" smooth="yes"/>
			<point x="490" y="627"/>
			<point x="414" y="711"/>
			<point x="256" y="711" type="curve" smooth="yes"/>
			<point x="179" y="711"/>
			<point x="100" y="695"/>
			<point x="100" y="667" type="curve" smooth="yes"/>
			<point x="100" y="30" type="line" smooth="yes"/>
			<point x="100" y="6"/>
			<point x="112" y="-10"/>
		</contour>
	</outline>
</glyph>
<glyph name="Y" format="2">
	<advance width="612"/>
	<unicode hex="0059"/>
	<anchor x="314" y="700" name="top"/>
	<anchor x="306" y="0" name="bottom"/>
	<anchor x="20" y="700" name="topleft"/>
	<outline>
		<contour>
			<point x="309" y="232" type="curve" smooth="yes"/>
			<point x="340" y="232"/>
			<point x="360" y="250"/>
			<point x="374" y="285" type="curve" smooth="yes"/>
			<point x="528" y="664" type="line" smooth="yes"/>
			<point x="539" y="692"/>
			<point x="523" y="711"/>
			<point x="504" y="711" type="curve" smooth="yes"/>
			<point x="490" y="711"/>
			<point x="478" y="701"/>
			<point x="469" y="677" type="curve" smooth="yes"/>
			<point x="314" y="274" type="line"/>
			<point x="337" y="278" type="line"/>
			<point x="286" y="278" type="line"/>
			<point x="305" y="274" type="line"/>
			<point x="144" y="677" type="line" smooth="yes"/>
			<point x="135" y="700"/>
			<point x="123" y="711"/>
			<point x="109" y="711" type="curve" smooth="yes"/>
			<point x="91" y="711"/>
			<point x="72" y="693"/>
			<point x="84" y="664" type="curve" smooth="yes"/>
			<point x="241" y="285" type="line" smooth="yes"/>
			<point x="255" y="250"/>
			<point x="278" y="232"/>
		</contour>
		<contour>
			<point x="306" y="-10" type="curve" smooth="yes"/>
			<point x="325" y="-10"/>
			<point x="337" y="6"/>
			<point x="337" y="30" type="curve" smooth="yes"/>
			<point x="337" y="246" type="line"/>
			<point x="277" y="246" type="line"/>
			<point x="277" y="30" type="line" smooth="yes"/>
			<point x="277" y="6"/>
			<point x="289" y="-10"/>
		</contour>
	</outline>
</glyph>
<glyph name="Z" format="2">
	<advance width="511"/>
	<unicode hex="005A"/>
	<outline>
		<contour>
			<point x="98" y="0" type="curve" smooth="yes"/>
			<point x="441" y="0" type="line" smooth="yes"/>
			<point x="459" y="0"/>
			<point x="471" y="10"/>
			<point x="471" y="25" type="curve" smooth="yes"/>
			<point x="471" y="40"/>
			<point x="459" y="50"/>
			<point x="441" y="50" type="curve" smooth="yes"/>
			<point x="112" y="50" type="line"/>
			<point x="122" y="20" type="line"/>
			<point x="122" y="119" type="line"/>
			<point x="106" y="25" type="line"/>
			<point x="443" y="650" type="line" smooth="yes"/>
			<point x="459" y="680"/>
			<point x="443" y="700"/>
			<point x="404" y="700" type="curve" smooth="yes"/>
			<point x="81" y="700" type="line" smooth="yes"/>
			<point x="63" y="700"/>
			<point x="51" y="690"/>
			<point x="51" y="675" type="curve" smooth="yes"/>
			<point x="51" y="660"/>
			<point x="63" y="650"/>
			<point x="81" y="650" type="curve" smooth="yes"/>
			<point x="395" y="650" type="line"/>
			<point x="381" y="674" type="line"/>
			<point x="382" y="598" type="line"/>
			<point x="397" y="677" type="line"/>
			<point x="57" y="52" type="line" smooth="yes"/>
			<point x="40" y="21"/>
			<point x="57" y="0"/>
		</contour>
	</outline>
</glyph>
<glyph name="d" format="2">
	<advance width="520"/>
	<unicode hex="0064"/>
	<outline>
		<contour>
			<point x="85" y="251" type="curve" smooth="yes"/>
			<point x="85" y="94"/>
			<point x="148" y="-10"/>
			<point x="242" y="-10" type="curve" smooth="yes"/>
			<point x="306" y="-10"/>
			<point x="355" y="23"/>
			<point x="381" y="77" type="curve"/>
			<point x="383" y="77" type="line"/>
			<point x="383" y="19" type="line" smooth="yes"/>
			<point x="383" y="1"/>
			<point x="394" y="-11"/>
			<point x="410" y="-11" type="curve" smooth="yes"/>
			<point x="426" y="-11"/>
			<point x="437" y="1"/>
			<point x="437" y="19" type="curve" smooth="yes"/>
			<point x="437" y="730" type="line" smooth="yes"/>
			<point x="437" y="748"/>
			<point x="426" y="760"/>
			<point x="410" y="760" type="curve" smooth="yes"/>
			<point x="394" y="760"/>
			<point x="383" y="748"/>
			<point x="383" y="730" type="curve" smooth="yes"/>
			<point x="383" y="454" type="line"/>
			<point x="381" y="454" type="line"/>
			<point x="358" y="485"/>
			<point x="308" y="510"/>
			<point x="249" y="510" type="curve" smooth="yes"/>
			<point x="151" y="510"/>
			<point x="85" y="406"/>
		</contour>
		<contour>
			<point x="139" y="255" type="curve" smooth="yes"/>
			<point x="139" y="378"/>
			<point x="188" y="460"/>
			<point x="261" y="460" type="curve" smooth="yes"/>
			<point x="307" y="460"/>
			<point x="355" y="442"/>
			<point x="383" y="414" type="curve"/>
			<point x="383" y="168" type="line" smooth="yes"/>
			<point x="383" y="91"/>
			<point x="336" y="40"/>
			<point x="265" y="40" type="curve" smooth="yes"/>
			<point x="189" y="40"/>
			<point x="139" y="126"/>
		</contour>
	</outline>
</glyph>
<glyph name="g" format="2">
	<advance width="506"/>
	<unicode hex="0067"/>
	<outline>
		<contour>
			<point x="251" y="-210" type="curve" smooth="yes"/>
			<point x="365" y="-210"/>
			<point x="441" y="-152"/>
			<point x="441" y="-64" type="curve" smooth="yes"/>
			<point x="441" y="68"/>
			<point x="197" y="24"/>
			<point x="197" y="104" type="curve" smooth="yes"/>
			<point x="197" y="121"/>
			<point x="225" y="132"/>
			<point x="256" y="132" type="curve" smooth="yes"/>
			<point x="352" y="132"/>
			<point x="416" y="208"/>
			<point x="416" y="321" type="curve" smooth="yes"/>
			<point x="416" y="379"/>
			<point x="402" y="417"/>
			<point x="379" y="449" type="curve" smooth="yes"/>
			<point x="375" y="455"/>
			<point x="373" y="461"/>
			<point x="373" y="468" type="curve" smooth="yes"/>
			<point x="373" y="487"/>
			<point x="384" y="498"/>
			<point x="398" y="507" type="curve"/>
			<point x="407" y="502"/>
			<point x="415" y="500"/>
			<point x="422" y="500" type="curve" smooth="yes"/>
			<point x="447" y="500"/>
			<point x="463" y="525"/>
			<point x="463" y="550" type="curve" smooth="yes"/>
			<point x="463" y="575"/>
			<point x="447" y="600"/>
			<point x="411" y="600" type="curve" smooth="yes"/>
			<point x="364" y="600"/>
			<point x="348" y="536"/>
			<point x="355" y="476" type="curve"/>
			<point x="353" y="474" type="line"/>
			<point x="328" y="493"/>
			<point x="291" y="510"/>
			<point x="256" y="510" type="curve" smooth="yes"/>
			<point x="159" y="510"/>
			<point x="94" y="434"/>
			<point x="94" y="321" type="curve" smooth="yes"/>
			<point x="94" y="234"/>
			<point x="135" y="170"/>
			<point x="200" y="148" type="curve"/>
			<point x="199" y="144" type="line"/>
			<point x="165" y="135"/>
			<point x="143" y="115"/>
			<point x="143" y="88" type="curve" smooth="yes"/>
			<point x="143" y="-18"/>
			<point x="387" y="25"/>
			<point x="387" y="-71" type="curve" smooth="yes"/>
			<point x="387" y="-124"/>
			<point x="330" y="-160"/>
			<point x="245" y="-160" type="curve" smooth="yes"/>
			<point x="193" y="-160"/>
			<point x="151" y="-141"/>
			<point x="134" y="-108" type="curve"/>
			<point x="155" y="-106"/>
			<point x="165" y="-88"/>
			<point x="165" y="-69" type="curve" smooth="yes"/>
			<point x="165" y="-47"/>
			<point x="152" y="-25"/>
			<point x="125" y="-25" type="curve" smooth="yes"/>
			<point x="101" y="-25"/>
			<point x="85" y="-43"/>
			<point x="85" y="-71" type="curve" smooth="yes"/>
			<point x="85" y="-154"/>
			<point x="151" y="-210"/>
		</contour>
		<contour>
			<point x="258" y="182" type="curve" smooth="yes"/>
			<point x="190" y="182"/>
			<point x="144" y="238"/>
			<point x="144" y="321" type="curve" smooth="yes"/>
			<point x="144" y="404"/>
			<point x="189" y="460"/>
			<point x="256" y="460" type="curve" smooth="yes"/>
			<point x="322" y="460"/>
			<point x="366" y="404"/>
			<point x="366" y="321" type="curve" smooth="yes"/>
			<point x="366" y="238"/>
			<point x="323" y="182"/>
		</contour>
	</outline>
</glyph>
<glyph name="i" format="2">
	<advance width="257"/>
	<unicode hex="0069"/>
	<outline>
		<contour>
			<point x="126" y="-10" type="curve" smooth="yes"/>
			<point x="143" y="-10"/>
			<point x="154" y="2"/>
			<point x="154" y="20" type="curve" smooth="yes"/>
			<point x="154" y="480" type="line" smooth="yes"/>
			<point x="154" y="498"/>
			<point x="143" y="510"/>
			<point x="127" y="510" type="curve" smooth="yes"/>
			<point x="111" y="510"/>
			<point x="100" y="498"/>
			<point x="100" y="480" type="curve" smooth="yes"/>
			<point x="100" y="20" type="line" smooth="yes"/>
			<point x="100" y="2"/>
			<point x="110" y="-10"/>
		</contour>
		<contour>
			<point x="128" y="599" type="curve" smooth="yes"/>
			<point x="154" y="599"/>
			<point x="171" y="616"/>
			<point x="171" y="642" type="curve" smooth="yes"/>
			<point x="171" y="667"/>
			<point x="154" y="684"/>
			<point x="128" y="684" type="curve" smooth="yes"/>
			<point x="102" y="684"/>
			<point x="86" y="667"/>
			<point x="86" y="642" type="curve" smooth="yes"/>
			<point x="86" y="616"/>
			<point x="102" y="599"/>
		</contour>
	</outline>
</glyph>
<glyph name="k" format="2">
	<advance width="513"/>
	<unicode hex="006B"/>
	<guideline x="315" y="485" angle="238.2175"/>
	<guideline x="413" y="421" angle="238.2175"/>
	<guideline x="189" y="280" angle="305.0316"/>
	<outline>
		<contour>
			<point x="407" y="-10" type="curve" smooth="yes"/>
			<point x="424" y="-10"/>
			<point x="432" y="-3"/>
			<point x="432" y="9" type="curve" smooth="yes"/>
			<point x="432" y="18"/>
			<point x="429" y="24"/>
			<point x="424" y="30" type="curve" smooth="yes"/>
			<point x="201" y="277" type="line"/>
			<point x="195" y="242" type="line"/>
			<point x="405" y="465" type="line" smooth="yes"/>
			<point x="416" y="476"/>
			<point x="419" y="483"/>
			<point x="419" y="493" type="curve" smooth="yes"/>
			<point x="419" y="503"/>
			<point x="412" y="510"/>
			<point x="401" y="510" type="curve" smooth="yes"/>
			<point x="390" y="510"/>
			<point x="384" y="507"/>
			<point x="370" y="493" type="curve" smooth="yes"/>
			<point x="149" y="258" type="line"/>
			<point x="374" y="15" type="line" smooth="yes"/>
			<point x="391" y="-3"/>
			<point x="400" y="-10"/>
		</contour>
		<contour>
			<point x="128" y="-10" type="curve" smooth="yes"/>
			<point x="146" y="-10"/>
			<point x="155" y="1"/>
			<point x="155" y="37" type="curve" smooth="yes"/>
			<point x="155" y="703" type="line" smooth="yes"/>
			<point x="155" y="738"/>
			<point x="146" y="750"/>
			<point x="131" y="750" type="curve" smooth="yes"/>
			<point x="109" y="750"/>
			<point x="100" y="739"/>
			<point x="100" y="703" type="curve" smooth="yes"/>
			<point x="100" y="37" type="line" smooth="yes"/>
			<point x="100" y="2"/>
			<point x="109" y="-10"/>
		</contour>
	</outline>
</glyph>
<glyph name="l" format="2">
	<advance width="230"/>
	<unicode hex="006C"/>
	<outline>
		<contour>
			<point x="126" y="-10" type="curve" smooth="yes"/>
			<point x="143" y="-10"/>
			<point x="154" y="2"/>
			<point x="154" y="20" type="curve" smooth="yes"/>
			<point x="154" y="730" type="line" smooth="yes"/>
			<point x="154" y="748"/>
			<point x="143" y="760"/>
			<point x="127" y="760" type="curve" smooth="yes"/>
			<point x="111" y="760"/>
			<point x="100" y="748"/>
			<point x="100" y="730" type="curve" smooth="yes"/>
			<point x="100" y="20" type="line" smooth="yes"/>
			<point x="100" y="2"/>
			<point x="110" y="-10"/>
		</contour>
	</outline>
</glyph>
<glyph name="p" format="2">
	<advance width="523"/>
	<unicode hex="0070"/>
	<outline>
		<contour>
			<point x="113" y="-210" type="curve" smooth="yes"/>
			<point x="129" y="-210"/>
			<point x="140" y="-198"/>
			<point x="140" y="-180" type="curve" smooth="yes"/>
			<point x="140" y="43" type="line"/>
			<point x="142" y="43" type="line"/>
			<point x="163" y="10"/>
			<point x="211" y="-11"/>
			<point x="274" y="-11" type="curve" smooth="yes"/>
			<point x="372" y="-11"/>
			<point x="438" y="93"/>
			<point x="438" y="248" type="curve" smooth="yes"/>
			<point x="438" y="405"/>
			<point x="375" y="509"/>
			<point x="281" y="509" type="curve" smooth="yes"/>
			<point x="218" y="509"/>
			<point x="169" y="477"/>
			<point x="143" y="423" type="curve"/>
			<point x="140" y="423" type="line"/>
			<point x="140" y="480" type="line" smooth="yes"/>
			<point x="140" y="498"/>
			<point x="129" y="510"/>
			<point x="113" y="510" type="curve" smooth="yes"/>
			<point x="97" y="510"/>
			<point x="86" y="498"/>
			<point x="86" y="480" type="curve" smooth="yes"/>
			<point x="86" y="-180" type="line" smooth="yes"/>
			<point x="86" y="-198"/>
			<point x="97" y="-210"/>
		</contour>
		<contour>
			<point x="262" y="39" type="curve" smooth="yes"/>
			<point x="216" y="39"/>
			<point x="168" y="57"/>
			<point x="140" y="85" type="curve"/>
			<point x="140" y="331" type="line" smooth="yes"/>
			<point x="140" y="408"/>
			<point x="187" y="459"/>
			<point x="258" y="459" type="curve" smooth="yes"/>
			<point x="334" y="459"/>
			<point x="384" y="373"/>
			<point x="384" y="244" type="curve" smooth="yes"/>
			<point x="384" y="121"/>
			<point x="335" y="39"/>
		</contour>
	</outline>
</glyph>
<glyph name="q" format="2">
	<advance width="523"/>
	<unicode hex="0071"/>
	<outline>
		<contour>
			<point x="411" y="-210" type="curve" smooth="yes"/>
			<point x="427" y="-210"/>
			<point x="438" y="-198"/>
			<point x="438" y="-180" type="curve" smooth="yes"/>
			<point x="438" y="464" type="line"/>
			<point x="411" y="486"/>
			<point x="350" y="510"/>
			<point x="286" y="510" type="curve" smooth="yes"/>
			<point x="165" y="510"/>
			<point x="85" y="403"/>
			<point x="85" y="243" type="curve" smooth="yes"/>
			<point x="85" y="91"/>
			<point x="147" y="-10"/>
			<point x="240" y="-10" type="curve" smooth="yes"/>
			<point x="309" y="-10"/>
			<point x="360" y="26"/>
			<point x="382" y="86" type="curve"/>
			<point x="384" y="86" type="line"/>
			<point x="384" y="-180" type="line" smooth="yes"/>
			<point x="384" y="-198"/>
			<point x="395" y="-210"/>
		</contour>
		<contour>
			<point x="267" y="40" type="curve" smooth="yes"/>
			<point x="191" y="40"/>
			<point x="140" y="122"/>
			<point x="140" y="245" type="curve" smooth="yes"/>
			<point x="140" y="374"/>
			<point x="198" y="460"/>
			<point x="284" y="460" type="curve" smooth="yes"/>
			<point x="322" y="460"/>
			<point x="360" y="450"/>
			<point x="384" y="434" type="curve"/>
			<point x="384" y="186" type="line" smooth="yes"/>
			<point x="384" y="109"/>
			<point x="337" y="40"/>
		</contour>
	</outline>
</glyph>
<glyph name="r" format="2">
	<advance width="346"/>
	<unicode hex="0072"/>
	<outline>
		<contour>
			<point x="113" y="-10" type="curve" smooth="yes"/>
			<point x="129" y="-10"/>
			<point x="140" y="2"/>
			<point x="140" y="20" type="curve" smooth="yes"/>
			<point x="140" y="311" type="line"/>
			<point x="140" y="394"/>
			<point x="202" y="449"/>
			<point x="296" y="449" type="curve" smooth="yes"/>
			<point x="320" y="449"/>
			<point x="336" y="461"/>
			<point x="336" y="479" type="curve" smooth="yes"/>
			<point x="336" y="497"/>
			<point x="320" y="509"/>
			<point x="296" y="509" type="curve" smooth="yes"/>
			<point x="222" y="509"/>
			<point x="166" y="465"/>
			<point x="142" y="394" type="curve"/>
			<point x="140" y="394" type="line"/>
			<point x="140" y="480" type="line"/>
			<point x="140" y="498"/>
			<point x="129" y="510"/>
			<point x="113" y="510" type="curve" smooth="yes"/>
			<point x="97" y="510"/>
			<point x="86" y="498"/>
			<point x="86" y="480" type="curve"/>
			<point x="86" y="20" type="line" smooth="yes"/>
			<point x="86" y="2"/>
			<point x="97" y="-10"/>
		</contour>
	</outline>
</glyph>
<glyph name="t" format="2">
	<advance width="428"/>
	<unicode hex="0074"/>
	<outline>
		<contour>
			<point x="250" y="-10" type="curve" smooth="yes"/>
			<point x="310" y="-10"/>
			<point x="359" y="19"/>
			<point x="359" y="50" type="curve" smooth="yes"/>
			<point x="359" y="61"/>
			<point x="351" y="69"/>
			<point x="339" y="69" type="curve" smooth="yes"/>
			<point x="315" y="69"/>
			<point x="312" y="40"/>
			<point x="264" y="40" type="curve" smooth="yes"/>
			<point x="214" y="40"/>
			<point x="188" y="58"/>
			<point x="188" y="99" type="curve" smooth="yes"/>
			<point x="188" y="610" type="line" smooth="yes"/>
			<point x="188" y="628"/>
			<point x="177" y="640"/>
			<point x="161" y="640" type="curve" smooth="yes"/>
			<point x="145" y="640"/>
			<point x="134" y="628"/>
			<point x="134" y="610" type="curve" smooth="yes"/>
			<point x="134" y="108" type="line" smooth="yes"/>
			<point x="134" y="37"/>
			<point x="177" y="-10"/>
		</contour>
		<contour>
			<point x="90" y="450" type="curve" smooth="yes"/>
			<point x="322" y="450" type="line" smooth="yes"/>
			<point x="340" y="450"/>
			<point x="352" y="460"/>
			<point x="352" y="475" type="curve" smooth="yes"/>
			<point x="352" y="490"/>
			<point x="340" y="500"/>
			<point x="321" y="500" type="curve" smooth="yes"/>
			<point x="91" y="500" type="line" smooth="yes"/>
			<point x="72" y="500"/>
			<point x="60" y="490"/>
			<point x="60" y="475" type="curve" smooth="yes"/>
			<point x="60" y="460"/>
			<point x="72" y="450"/>
		</contour>
	</outline>
</glyph>
<glyph name="v" format="2">
	<advance width="493"/>
	<unicode hex="0076"/>
	<outline>
		<contour>
			<point x="252" y="-10" type="curve" smooth="yes"/>
			<point x="283" y="-10"/>
			<point x="302" y="8"/>
			<point x="312" y="43" type="curve" smooth="yes"/>
			<point x="426" y="463" type="line" smooth="yes"/>
			<point x="435" y="494"/>
			<point x="422" y="510"/>
			<point x="406" y="510" type="curve" smooth="yes"/>
			<point x="393" y="510"/>
			<point x="378" y="499"/>
			<point x="372" y="476" type="curve" smooth="yes"/>
			<point x="257" y="32" type="line"/>
			<point x="278" y="39" type="line"/>
			<point x="229" y="39" type="line"/>
			<point x="248" y="32" type="line"/>
			<point x="127" y="476" type="line" smooth="yes"/>
			<point x="121" y="499"/>
			<point x="105" y="510"/>
			<point x="92" y="510" type="curve" smooth="yes"/>
			<point x="76" y="510"/>
			<point x="63" y="495"/>
			<point x="72" y="463" type="curve" smooth="yes"/>
			<point x="189" y="43" type="line" smooth="yes"/>
			<point x="199" y="8"/>
			<point x="221" y="-10"/>
		</contour>
	</outline>
</glyph>
<glyph name="x" format="2">
	<advance width="463"/>
	<unicode hex="0078"/>
	<outline>
		<contour>
			<point x="355" y="6" type="line" smooth="yes"/>
			<point x="363" y="-6"/>
			<point x="373" y="-12"/>
			<point x="383" y="-12" type="curve" smooth="yes"/>
			<point x="403" y="-12"/>
			<point x="418" y="7"/>
			<point x="401" y="35" type="curve" smooth="yes"/>
			<point x="113" y="496" type="line" smooth="yes"/>
			<point x="107" y="506"/>
			<point x="96" y="511"/>
			<point x="86" y="511" type="curve" smooth="yes"/>
			<point x="68" y="511"/>
			<point x="52" y="494"/>
			<point x="71" y="463" type="curve" smooth="yes"/>
		</contour>
		<contour>
			<point x="36" y="25" type="line" smooth="yes"/>
			<point x="23" y="4"/>
			<point x="43" y="-10"/>
			<point x="57" y="-10" type="curve" smooth="yes"/>
			<point x="64" y="-10"/>
			<point x="72" y="-7"/>
			<point x="78" y="3" type="curve" smooth="yes"/>
			<point x="260" y="284" type="line"/>
			<point x="203" y="284" type="line"/>
		</contour>
		<contour>
			<point x="200" y="248" type="line"/>
			<point x="254" y="248" type="line"/>
			<point x="398" y="478" type="line" smooth="yes"/>
			<point x="410" y="497"/>
			<point x="390" y="511"/>
			<point x="377" y="511" type="curve" smooth="yes"/>
			<point x="369" y="511"/>
			<point x="360" y="506"/>
			<point x="352" y="493" type="curve" smooth="yes"/>
		</contour>
	</outline>
</glyph>
<glyph name="z" format="2">
	<advance width="487"/>
	<unicode hex="007A"/>
	<outline>
		<contour>
			<point x="111" y="0" type="curve" smooth="yes"/>
			<point x="411" y="0" type="line" smooth="yes"/>
			<point x="429" y="0"/>
			<point x="441" y="10"/>
			<point x="441" y="25" type="curve" smooth="yes"/>
			<point x="441" y="40"/>
			<point x="429" y="50"/>
			<point x="411" y="50" type="curve" smooth="yes"/>
			<point x="142" y="50" type="line"/>
			<point x="157" y="20" type="line"/>
			<point x="133" y="92" type="line"/>
			<point x="126" y="25" type="line"/>
			<point x="413" y="450" type="line" smooth="yes"/>
			<point x="432" y="478"/>
			<point x="413" y="500"/>
			<point x="390" y="500" type="curve" smooth="yes"/>
			<point x="111" y="500" type="line" smooth="yes"/>
			<point x="93" y="500"/>
			<point x="81" y="490"/>
			<point x="81" y="475" type="curve" smooth="yes"/>
			<point x="81" y="460"/>
			<point x="93" y="450"/>
			<point x="111" y="450" type="curve" smooth="yes"/>
			<point x="365" y="450" type="line"/>
			<point x="350" y="474" type="line"/>
			<point x="365" y="409" type="line"/>
			<point x="377" y="477" type="line"/>
			<point x="87" y="52" type="line" smooth="yes"/>
			<point x="66" y="22"/>
			<point x="87" y="0"/>
		</contour>
	</outline>
</glyph>
<glyph name="Idieresis" format="2">
	<advance width="257"/>
	<unicode hex="00CF"/>
	<anchor x="130" y="700" name="_top"/>
	<outline>
		<contour>
			<point x="195" y="763" type="curve" smooth="yes"/>
			<point x="221" y="763"/>
			<point x="238" y="781"/>
			<point x="238" y="807" type="curve" smooth="yes"/>
			<point x="238" y="832"/>
			<point x="221" y="849"/>
			<point x="195" y="849" type="curve" smooth="yes"/>
			<point x="170" y="849"/>
			<point x="153" y="832"/>
			<point x="153" y="807" type="curve" smooth="yes"/>
			<point x="153" y="781"/>
			<point x="170" y="763"/>
		</contour>
		<contour>
			<point x="63" y="763" type="curve" smooth="yes"/>
			<point x="89" y="763"/>
			<point x="106" y="781"/>
			<point x="106" y="807" type="curve" smooth="yes"/>
			<point x="106" y="832"/>
			<point x="89" y="849"/>
			<point x="63" y="849" type="curve" smooth="yes"/>
			<point x="38" y="849"/>
			<point x="21" y="832"/>
			<point x="21" y="807" type="curve" smooth="yes"/>
			<point x="21" y="781"/>
			<point x="38" y="763"/>
		</contour>
		<component base="I"/>
	</outline>
</glyph>
<glyph name="OE" format="2">
	<advance width="707"/>
	<unicode hex="0152"/>
	<anchor x="789" y="700" name="top"/>
	<outline>
		<contour>
			<point x="325" y="0" type="curve" smooth="yes"/>
			<point x="367" y="0"/>
			<point x="348" y="0"/>
			<point x="414" y="0" type="curve"/>
			<point x="436" y="51" type="line"/>
			<point x="370" y="51"/>
			<point x="361" y="51"/>
			<point x="325" y="51" type="curve" smooth="yes"/>
			<point x="217" y="51"/>
			<point x="155" y="164"/>
			<point x="155" y="351" type="curve" smooth="yes"/>
			<point x="155" y="573"/>
			<point x="235" y="650"/>
			<point x="325" y="650" type="curve" smooth="yes"/>
			<point x="355" y="650"/>
			<point x="351" y="650"/>
			<point x="436" y="650" type="curve"/>
			<point x="415" y="700" type="line"/>
			<point x="351" y="700"/>
			<point x="362" y="700"/>
			<point x="325" y="700" type="curve" smooth="yes"/>
			<point x="174" y="700"/>
			<point x="95" y="566"/>
			<point x="95" y="351" type="curve" smooth="yes"/>
			<point x="95" y="91"/>
			<point x="197" y="0"/>
		</contour>
		<contour>
			<point x="422" y="321" type="line"/>
			<point x="583" y="321" type="line" smooth="yes"/>
			<point x="601" y="321"/>
			<point x="613" y="331"/>
			<point x="613" y="346" type="curve" smooth="yes"/>
			<point x="613" y="361"/>
			<point x="601" y="371"/>
			<point x="583" y="371" type="curve" smooth="yes"/>
			<point x="422" y="371" type="line"/>
		</contour>
		<contour>
			<point x="414" y="0" type="curve" smooth="yes"/>
			<point x="658" y="0" type="line" smooth="yes"/>
			<point x="675" y="0"/>
			<point x="687" y="10"/>
			<point x="687" y="25" type="curve" smooth="yes"/>
			<point x="687" y="41"/>
			<point x="675" y="51"/>
			<point x="657" y="51" type="curve" smooth="yes"/>
			<point x="436" y="51" type="line"/>
			<point x="445" y="35" type="line"/>
			<point x="445" y="665" type="line"/>
			<point x="436" y="650" type="line"/>
			<point x="658" y="650" type="line" smooth="yes"/>
			<point x="675" y="650"/>
			<point x="687" y="660"/>
			<point x="687" y="675" type="curve" smooth="yes"/>
			<point x="687" y="690"/>
			<point x="675" y="700"/>
			<point x="657" y="700" type="curve" smooth="yes"/>
			<point x="415" y="700" type="line" smooth="yes"/>
			<point x="397" y="700"/>
			<point x="385" y="688"/>
			<point x="385" y="670" type="curve"/>
			<point x="385" y="25" type="line" smooth="yes"/>
			<point x="385" y="10"/>
			<point x="397" y="0"/>
		</contour>
	</outline>
</glyph>
<glyph name="fi" format="2">
	<advance width="574"/>
	<unicode hex="FB01"/>
	<outline>
		<contour>
			<point x="60" y="475" type="curve" smooth="yes"/>
			<point x="60" y="460"/>
			<point x="72" y="450"/>
			<point x="90" y="450" type="curve" smooth="yes"/>
			<point x="144" y="450" type="line"/>
			<point x="144" y="20" type="line" smooth="yes"/>
			<point x="144" y="2"/>
			<point x="155" y="-10"/>
			<point x="171" y="-10" type="curve" smooth="yes"/>
			<point x="187" y="-10"/>
			<point x="198" y="2"/>
			<point x="198" y="20" type="curve" smooth="yes"/>
			<point x="198" y="450" type="line"/>
			<point x="427" y="450" type="line"/>
			<point x="427" y="20" type="line" smooth="yes"/>
			<point x="427" y="2"/>
			<point x="437" y="-10"/>
			<point x="453" y="-10" type="curve" smooth="yes"/>
			<point x="470" y="-10"/>
			<point x="481" y="2"/>
			<point x="481" y="20" type="curve" smooth="yes"/>
			<point x="481" y="470" type="line" smooth="yes"/>
			<point x="481" y="487"/>
			<point x="470" y="500"/>
			<point x="454" y="500" type="curve" smooth="yes"/>
			<point x="198" y="500" type="line"/>
			<point x="198" y="585" type="line" smooth="yes"/>
			<point x="198" y="679"/>
			<point x="256" y="710"/>
			<point x="338" y="710" type="curve" smooth="yes"/>
			<point x="370" y="710"/>
			<point x="414" y="696"/>
			<point x="433" y="678" type="curve"/>
			<point x="412" y="673"/>
			<point x="402" y="656"/>
			<point x="402" y="638" type="curve" smooth="yes"/>
			<point x="402" y="611"/>
			<point x="423" y="595"/>
			<point x="443" y="595" type="curve" smooth="yes"/>
			<point x="465" y="595"/>
			<point x="488" y="613"/>
			<point x="488" y="649" type="curve" smooth="yes"/>
			<point x="488" y="714"/>
			<point x="398" y="760"/>
			<point x="325" y="760" type="curve" smooth="yes"/>
			<point x="228" y="760"/>
			<point x="144" y="705"/>
			<point x="144" y="582" type="curve" smooth="yes"/>
			<point x="144" y="500" type="line"/>
			<point x="91" y="500" type="line" smooth="yes"/>
			<point x="72" y="500"/>
			<point x="60" y="490"/>
		</contour>
	</outline>
</glyph>
<glyph name=".notdef" format="2">
	<advance width="766"/>
	<outline>
		<contour>
			<point x="380" y="88" type="curve" smooth="yes"/>
			<point x="477" y="88"/>
			<point x="535" y="146"/>
			<point x="535" y="215" type="curve" smooth="yes"/>
			<point x="535" y="270"/>
			<point x="506" y="313"/>
			<point x="477" y="351" type="curve" smooth="yes"/>
			<point x="452" y="382"/>
			<point x="429" y="409"/>
			<point x="380" y="409" type="curve" smooth="yes"/>
			<point x="331" y="409"/>
			<point x="308" y="382"/>
			<point x="283" y="351" type="curve" smooth="yes"/>
			<point x="254" y="313"/>
			<point x="225" y="270"/>
			<point x="225" y="215" type="curve" smooth="yes"/>
			<point x="225" y="146"/>
			<point x="283" y="88"/>
		</contour>
		<contour>
			<point x="135" y="310" type="curve" smooth="yes"/>
			<point x="180" y="310"/>
			<point x="199" y="343"/>
			<point x="199" y="379" type="curve" smooth="yes"/>
			<point x="199" y="421"/>
			<point x="168" y="460"/>
			<point x="128" y="460" type="curve" smooth="yes"/>
			<point x="91" y="460"/>
			<point x="66" y="431"/>
			<point x="66" y="392" type="curve" smooth="yes"/>
			<point x="66" y="351"/>
			<point x="95" y="310"/>
		</contour>
		<contour>
			<point x="282" y="462" type="curve" smooth="yes"/>
			<point x="317" y="462"/>
			<point x="339" y="486"/>
			<point x="339" y="523" type="curve" smooth="yes"/>
			<point x="339" y="562"/>
			<point x="311" y="611"/>
			<point x="276" y="611" type="curve" smooth="yes"/>
			<point x="228" y="611"/>
			<point x="218" y="571"/>
			<point x="218" y="535" type="curve" smooth="yes"/>
			<point x="218" y="496"/>
			<point x="246" y="462"/>
		</contour>
		<contour>
			<point x="633" y="288" type="curve" smooth="yes"/>
			<point x="670" y="288"/>
			<point x="696" y="324"/>
			<point x="696" y="361" type="curve" smooth="yes"/>
			<point x="696" y="393"/>
			<point x="676" y="424"/>
			<point x="638" y="424" type="curve" smooth="yes"/>
			<point x="603" y="424"/>
			<point x="575" y="390"/>
			<point x="575" y="351" type="curve" smooth="yes"/>
			<point x="575" y="318"/>
			<point x="593" y="288"/>
		</contour>
		<contour>
			<point x="474" y="452" type="curve" smooth="yes"/>
			<point x="510" y="452"/>
			<point x="538" y="487"/>
			<point x="538" y="525" type="curve" smooth="yes"/>
			<point x="538" y="561"/>
			<point x="528" y="601"/>
			<point x="480" y="601" type="curve" smooth="yes"/>
			<point x="445" y="601"/>
			<point x="417" y="552"/>
			<point x="417" y="514" type="curve" smooth="yes"/>
			<point x="417" y="477"/>
			<point x="439" y="452"/>
		</contour>
	</outline>
</glyph>
<glyph name="a.salt" format="2">
	<advance width="520"/>
	<anchor x="473" y="10" name="ogonek"/>
	<anchor x="277" y="0" name="bottom"/>
	<anchor x="295" y="500" name="top"/>
	<outline>
		<contour>
			<point x="410" y="-11" type="curve" smooth="yes"/>
			<point x="425" y="-11"/>
			<point x="435" y="1"/>
			<point x="435" y="19" type="curve"/>
			<point x="435" y="466" type="line"/>
			<point x="403" y="489"/>
			<point x="362" y="511"/>
			<point x="295" y="511" type="curve" smooth="yes"/>
			<point x="155" y="511"/>
			<point x="85" y="383"/>
			<point x="85" y="231" type="curve" smooth="yes"/>
			<point x="85" y="86"/>
			<point x="148" y="-10"/>
			<point x="242" y="-10" type="curve" smooth="yes"/>
			<point x="307" y="-10"/>
			<point x="357" y="23"/>
			<point x="383" y="78" type="curve"/>
			<point x="385" y="78" type="line"/>
			<point x="385" y="19" type="line"/>
			<point x="385" y="1"/>
			<point x="395" y="-11"/>
		</contour>
		<contour>
			<point x="265" y="40" type="curve" smooth="yes"/>
			<point x="189" y="40"/>
			<point x="139" y="118"/>
			<point x="139" y="235" type="curve" smooth="yes"/>
			<point x="139" y="353"/>
			<point x="191" y="461"/>
			<point x="302" y="461" type="curve" smooth="yes"/>
			<point x="348" y="461"/>
			<point x="376" y="448"/>
			<point x="396" y="435" type="curve"/>
			<point x="385" y="478" type="line"/>
			<point x="385" y="168" type="line"/>
			<point x="385" y="91"/>
			<point x="337" y="40"/>
		</contour>
	</outline>
</glyph>
<glyph name="acute.case" format="2">
	<advance width="186"/>
	<anchor x="90" y="700" name="_top"/>
	<outline>
		<contour>
			<point x="17" y="748" type="curve" smooth="yes"/>
			<point x="198" y="819" type="line" smooth="yes"/>
			<point x="238" y="835"/>
			<point x="210" y="896"/>
			<point x="161" y="869" type="curve" smooth="yes"/>
			<point x="0" y="780" type="line" smooth="yes"/>
			<point x="-24" y="767"/>
			<point x="-5" y="739"/>
		</contour>
	</outline>
</glyph>
<glyph name="bullet.salt" format="2">
	<advance width="544"/>
	<outline>
		<contour>
			<point x="275" y="217" type="curve" smooth="yes"/>
			<point x="326" y="217"/>
			<point x="356" y="247"/>
			<point x="356" y="283" type="curve" smooth="yes"/>
			<point x="356" y="323"/>
			<point x="326" y="384"/>
			<point x="275" y="384" type="curve" smooth="yes"/>
			<point x="226" y="384"/>
			<point x="194" y="325"/>
			<point x="194" y="283" type="curve" smooth="yes"/>
			<point x="194" y="247"/>
			<point x="225" y="217"/>
		</contour>
		<contour>
			<point x="161" y="322" type="curve" smooth="yes"/>
			<point x="184" y="322"/>
			<point x="194" y="339"/>
			<point x="194" y="359" type="curve" smooth="yes"/>
			<point x="194" y="380"/>
			<point x="177" y="401"/>
			<point x="158" y="401" type="curve" smooth="yes"/>
			<point x="138" y="401"/>
			<point x="125" y="385"/>
			<point x="125" y="365" type="curve" smooth="yes"/>
			<point x="125" y="344"/>
			<point x="139" y="322"/>
		</contour>
		<contour>
			<point x="232" y="397" type="curve" smooth="yes"/>
			<point x="251" y="397"/>
			<point x="264" y="409"/>
			<point x="264" y="432" type="curve" smooth="yes"/>
			<point x="264" y="454"/>
			<point x="248" y="482"/>
			<point x="228" y="482" type="curve" smooth="yes"/>
			<point x="201" y="482"/>
			<point x="195" y="458"/>
			<point x="195" y="438" type="curve" smooth="yes"/>
			<point x="195" y="416"/>
			<point x="210" y="397"/>
		</contour>
		<contour>
			<point x="387" y="323" type="curve" smooth="yes"/>
			<point x="408" y="323"/>
			<point x="422" y="344"/>
			<point x="422" y="364" type="curve" smooth="yes"/>
			<point x="422" y="382"/>
			<point x="411" y="401"/>
			<point x="389" y="401" type="curve" smooth="yes"/>
			<point x="369" y="401"/>
			<point x="354" y="381"/>
			<point x="354" y="359" type="curve" smooth="yes"/>
			<point x="354" y="339"/>
			<point x="364" y="323"/>
		</contour>
		<contour>
			<point x="318" y="397" type="curve" smooth="yes"/>
			<point x="339" y="397"/>
			<point x="355" y="416"/>
			<point x="355" y="439" type="curve" smooth="yes"/>
			<point x="355" y="459"/>
			<point x="349" y="482"/>
			<point x="322" y="482" type="curve" smooth="yes"/>
			<point x="301" y="482"/>
			<point x="286" y="454"/>
			<point x="286" y="432" type="curve" smooth="yes"/>
			<point x="286" y="410"/>
			<point x="298" y="397"/>
		</contour>
	</outline>
</glyph>
<glyph name="y.salt" format="2">
	<advance width="532"/>
	<anchor x="279" y="500" name="top"/>
	<anchor x="266" y="0" name="bottom"/>
	<outline>
		<contour>
			<point x="295" y="-210" type="curve" smooth="yes"/>
			<point x="391" y="-210"/>
			<point x="457" y="-133"/>
			<point x="457" y="-17" type="curve" smooth="yes"/>
			<point x="457" y="483" type="line" smooth="yes"/>
			<point x="457" y="501"/>
			<point x="446" y="513"/>
			<point x="430" y="513" type="curve" smooth="yes"/>
			<point x="414" y="513"/>
			<point x="403" y="501"/>
			<point x="403" y="483" type="curve" smooth="yes"/>
			<point x="403" y="168" type="line" smooth="yes"/>
			<point x="403" y="96"/>
			<point x="367" y="39"/>
			<point x="299" y="39" type="curve" smooth="yes"/>
			<point x="189" y="39"/>
			<point x="159" y="95"/>
			<point x="159" y="226" type="curve" smooth="yes"/>
			<point x="159" y="483" type="line" smooth="yes"/>
			<point x="159" y="501"/>
			<point x="148" y="513"/>
			<point x="132" y="513" type="curve" smooth="yes"/>
			<point x="116" y="513"/>
			<point x="105" y="501"/>
			<point x="105" y="483" type="curve" smooth="yes"/>
			<point x="105" y="226" type="line" smooth="yes"/>
			<point x="105" y="54"/>
			<point x="166" y="-11"/>
			<point x="278" y="-11" type="curve" smooth="yes"/>
			<point x="345" y="-11"/>
			<point x="381" y="25"/>
			<point x="403" y="77" type="curve"/>
			<point x="405" y="77" type="line"/>
			<point x="405" y="-38" type="line" smooth="yes"/>
			<point x="405" y="-111"/>
			<point x="362" y="-160"/>
			<point x="285" y="-160" type="curve" smooth="yes"/>
			<point x="241" y="-160"/>
			<point x="198" y="-149"/>
			<point x="178" y="-132" type="curve"/>
			<point x="189" y="-125"/>
			<point x="195" y="-113"/>
			<point x="195" y="-97" type="curve" smooth="yes"/>
			<point x="195" y="-74"/>
			<point x="179" y="-59"/>
			<point x="155" y="-59" type="curve" smooth="yes"/>
			<point x="131" y="-59"/>
			<point x="115" y="-74"/>
			<point x="115" y="-97" type="curve" smooth="yes"/>
			<point x="115" y="-165"/>
			<point x="187" y="-210"/>
		</contour>
	</outline>
</glyph>
